<svg width="480" height="224" viewBox="0 0 480 224" fill="none" xmlns="http://www.w3.org/2000/svg">
<path d="M325.963 224C417.391 224 467.081 192.979 480 180.305V21H0V206.369C11.2629 205.841 29.3494 193.476 79.5031 195.483C165.655 198.931 234.534 224 325.963 224Z" fill="#E5E5E5"/>
<path d="M154.037 203C62.6087 203 12.9193 171.979 0 159.305V0H480V185.369C468.737 184.841 450.651 172.476 400.497 174.483C314.345 177.931 245.466 203 154.037 203Z" fill="#2420FF"/>
<path d="M154.037 203C62.6087 203 12.9193 171.979 0 159.305V0H480V185.369C468.737 184.841 450.651 172.476 400.497 174.483C314.345 177.931 245.466 203 154.037 203Z" fill="url(#paint0_linear_46_25)"/>
<defs>
<linearGradient id="paint0_linear_46_25" x1="88" y1="203" x2="496.654" y2="-106.742" gradientUnits="userSpaceOnUse">
<stop stop-color="#873CC7"/>
<stop offset="1" stop-color="#2E26FC"/>
</linearGradient>
</defs>
</svg>
