<svg width="115" height="115" viewBox="0 0 115 115" fill="none" xmlns="http://www.w3.org/2000/svg">
<rect x="2.12132" y="57.2444" width="77.9558" height="77.9558" rx="18.5" transform="rotate(-45 2.12132 57.2444)" stroke="#FF7820" stroke-width="3"/>
<g clip-path="url(#clip0_46_19)">
<path d="M68.5 44.1459V39.7501C68.5 36.5732 65.9269 34.0001 62.75 34.0001H51.25C48.0731 34.0001 45.5 36.5732 45.5 39.7501V44.1459C41.9719 47.3046 39.75 51.8921 39.75 57.0001C39.75 62.108 41.9719 66.6955 45.5 69.8542V74.2501C45.5 77.4269 48.0731 80.0001 51.25 80.0001H62.75C65.9269 80.0001 68.5 77.4269 68.5 74.2501V69.8542C72.0281 66.6955 74.25 62.108 74.25 57.0001C74.25 51.8921 72.0281 47.3046 68.5 44.1459ZM49.3333 39.7501C49.3333 38.6911 50.191 37.8334 51.25 37.8334H62.75C63.809 37.8334 64.6667 38.6911 64.6667 39.7501V41.5474C62.3571 40.3989 59.7547 39.7501 57 39.7501C54.2453 39.7501 51.6434 40.3989 49.3333 41.5474V39.7501ZM64.6667 74.2501C64.6667 75.309 63.809 76.1667 62.75 76.1667H51.25C50.191 76.1667 49.3333 75.309 49.3333 74.2501V72.4527C51.6434 73.6013 54.2453 74.2501 57 74.2501C59.7547 74.2501 62.3571 73.6013 64.6667 72.4527V74.2501ZM57 70.4167C49.5902 70.4167 43.5833 64.4099 43.5833 57.0001C43.5833 49.5902 49.5902 43.5834 57 43.5834C64.4098 43.5834 70.4167 49.5902 70.4167 57.0001C70.4167 64.4099 64.4098 70.4167 57 70.4167ZM60.8333 62.7501C60.3431 62.7501 59.8525 62.5627 59.4783 62.1885L55.6449 58.3551C55.2855 57.9958 55.0833 57.5085 55.0833 57.0001V49.3334C55.0833 48.2749 55.9415 47.4167 57 47.4167C58.0585 47.4167 58.9167 48.2749 58.9167 49.3334V56.2061L62.1884 59.4783C62.9369 60.2268 62.9369 61.4405 62.1884 62.1885C61.8142 62.5627 61.3235 62.7501 60.8333 62.7501Z" fill="#873CC7"/>
</g>
<defs>
<clipPath id="clip0_46_19">
<rect width="46" height="46" fill="white" transform="translate(34 34.0001)"/>
</clipPath>
</defs>
</svg>
