<svg width="115" height="115" viewBox="0 0 115 115" fill="none" xmlns="http://www.w3.org/2000/svg">
<rect x="2.12132" y="57.2444" width="77.9558" height="77.9558" rx="18.5" transform="rotate(-45 2.12132 57.2444)" stroke="#FF7820" stroke-width="3"/>
<path d="M46.4583 44.1367V62.8855H55.4683L56.7933 60.8759C59.355 56.923 63.9704 55.1563 67.3712 55.1563C68.5417 55.1563 69.5354 55.3551 70.2863 55.7084C72.2958 56.6138 72.8479 58.3142 72.9583 59.5509C73.135 62.0463 71.8542 64.608 69.6458 66.1096C67.6583 67.4788 62.8883 68.9584 57.2129 68.9584C53.3483 68.9584 47.8054 68.2738 42.3067 65.2042C42.9471 59.7938 44.25 51.0267 46.4583 44.1367ZM46.4583 33.6251C39.8333 42.6571 37.625 67.5009 37.625 67.5009C44.0292 71.8513 51.0517 73.3751 57.2129 73.3751C63.8158 73.3751 69.4029 71.6305 72.1633 69.7534C78.7883 65.2484 79.4508 55.068 72.1633 51.6892C70.75 51.0488 69.1158 50.7396 67.3712 50.7396C62.2921 50.7396 56.3958 53.4117 53.0833 58.4688H50.875V42.6571H55.2917L57.5 35.8334L46.4583 33.6251Z" fill="#873CC7"/>
</svg>
