<svg width="115" height="115" viewBox="0 0 115 115" fill="none" xmlns="http://www.w3.org/2000/svg">
<path d="M73.9398 48.923C73.5987 48.9227 73.258 48.8992 72.9201 48.8529C70.9284 48.5857 68.9679 47.5749 67.4015 46.0085C65.8351 44.441 64.8243 42.4816 64.556 40.4888C64.2699 38.3602 64.8822 36.3619 66.2381 35.0059C67.5941 33.6499 69.5925 33.0365 71.7211 33.3237C73.7138 33.5921 75.6743 34.6018 77.2407 36.1693C78.8071 37.7368 79.8179 39.6962 80.0862 41.6878C80.3724 43.8175 79.7589 45.8159 78.4041 47.1719C77.2674 48.3074 75.6788 48.923 73.9398 48.923ZM69.7628 43.6461C70.7993 44.6837 72.1129 45.375 73.3665 45.5387C74.4697 45.6878 75.4205 45.4273 76.0384 44.805C76.6562 44.1827 76.9212 43.2331 76.772 42.1331C76.6039 40.8796 75.9126 39.5659 74.8794 38.5295C72.8633 36.5133 69.9866 35.9812 68.5994 37.3672C67.2123 38.7532 67.7455 41.6299 69.7628 43.6461Z" fill="#873CC7"/>
<path d="M50.081 72.7807C49.7403 72.7806 49.4 72.7575 49.0624 72.7116C47.0696 72.4433 45.1091 71.4336 43.5427 69.8661C41.9764 68.2986 40.9655 66.3392 40.6972 64.3476C40.4111 62.2178 41.0245 60.2195 42.3794 58.8635C42.6926 58.5503 43.1175 58.3743 43.5606 58.3743C44.0036 58.3743 44.4285 58.5503 44.7417 58.8635C45.055 59.1768 45.231 59.6017 45.231 60.0447C45.231 60.4878 45.055 60.9126 44.7417 61.2259C44.1194 61.8471 43.8589 62.7979 44.007 63.8978C44.1762 65.1513 44.8675 66.465 45.8996 67.5015C47.9257 69.5254 50.7969 70.0542 52.184 68.6682C52.3381 68.5087 52.5223 68.3815 52.7261 68.294C52.9298 68.2064 53.1489 68.1604 53.3707 68.1585C53.5924 68.1565 53.8123 68.1988 54.0175 68.2827C54.2228 68.3667 54.4092 68.4907 54.566 68.6475C54.7228 68.8043 54.8468 68.9907 54.9308 69.196C55.0147 69.4012 55.057 69.6211 55.055 69.8428C55.0531 70.0646 55.0071 70.2837 54.9195 70.4874C54.832 70.6912 54.7048 70.8754 54.5453 71.0295C53.4086 72.1661 51.8222 72.7807 50.081 72.7807Z" fill="#873CC7"/>
<path d="M36.9811 78.0977C36.7311 78.0976 36.4843 78.0414 36.2589 77.9333C36.0336 77.8251 35.8353 77.6677 35.6789 77.4727C35.5225 77.2777 35.4118 77.05 35.3551 76.8066C35.2984 76.5631 35.2971 76.31 35.3513 76.0659C35.3802 75.9357 36.0704 72.8374 37.029 69.4197C38.828 63.0072 39.9135 61.3294 40.6583 60.5847L66.2381 35.0059C66.3922 34.8464 66.5764 34.7192 66.7802 34.6317C66.9839 34.5442 67.203 34.4981 67.4248 34.4962C67.6465 34.4942 67.8664 34.5365 68.0716 34.6204C68.2769 34.7044 68.4633 34.8284 68.6201 34.9852C68.7769 35.142 68.9009 35.3284 68.9848 35.5337C69.0688 35.7389 69.1111 35.9588 69.1091 36.1805C69.1072 36.4023 69.0611 36.6214 68.9736 36.8251C68.8861 37.0289 68.7589 37.2131 68.5994 37.3672L43.0206 62.947C42.9193 63.0472 41.9886 64.1082 40.2441 70.3225C39.8534 71.7152 39.5038 73.0712 39.231 74.1789C40.3443 73.9039 41.7036 73.5544 43.0997 73.1614C49.3029 71.4202 50.3627 70.4895 50.4629 70.3893L76.0417 44.8106C76.3548 44.4973 76.7795 44.3212 77.2225 44.3211C77.6654 44.321 78.0902 44.4969 78.4035 44.81C78.7168 45.1231 78.8928 45.5479 78.8929 45.9908C78.893 46.4337 78.7172 46.8586 78.4041 47.1718L52.8242 72.7539C52.0794 73.4987 50.4028 74.5842 43.9892 76.3843C40.577 77.3418 37.4732 78.032 37.3429 78.0609C37.224 78.0863 37.1027 78.0986 36.9811 78.0977Z" fill="#873CC7"/>
<path d="M72.5994 43.0371C72.38 43.0371 72.1628 42.9938 71.9601 42.9097C71.7574 42.8257 71.5733 42.7025 71.4182 42.5473L70.8616 41.9906C70.5574 41.6757 70.3891 41.2538 70.3929 40.816C70.3967 40.3781 70.5723 39.9593 70.8819 39.6497C71.1916 39.3401 71.6104 39.1645 72.0482 39.1606C72.4861 39.1568 72.9079 39.3252 73.2229 39.6293L73.7795 40.186C74.0131 40.4195 74.1723 40.717 74.2368 41.0409C74.3013 41.3648 74.2684 41.7006 74.142 42.0058C74.0157 42.311 73.8017 42.5719 73.5272 42.7554C73.2526 42.939 72.9297 43.037 72.5994 43.0371Z" fill="#873CC7"/>
<rect x="2.12132" y="57.2444" width="77.9558" height="77.9558" rx="18.5" transform="rotate(-45 2.12132 57.2444)" stroke="#FF7820" stroke-width="3"/>
</svg>
