<svg width="57" height="17" viewBox="0 0 57 17" fill="none" xmlns="http://www.w3.org/2000/svg">
<path d="M4 16.58C2.97333 16.58 2.16667 16.3667 1.58 15.94C1.00667 15.5133 0.6 14.9133 0.36 14.14C0.12 13.3533 0 12.4467 0 11.42V5.1C0 4.06 0.113333 3.16 0.34 2.4C0.58 1.64 0.993333 1.05333 1.58 0.64C2.18 0.213333 3.02 0 4.1 0C5.07333 0 5.84 0.18 6.4 0.54C6.97333 0.899999 7.38667 1.42667 7.64 2.12C7.89333 2.81333 8.02 3.66 8.02 4.66V5.22H6.58V4.66C6.58 3.88667 6.50667 3.24667 6.36 2.74C6.22667 2.23333 5.98667 1.85333 5.64 1.6C5.29333 1.34667 4.78667 1.22 4.12 1.22C3.37333 1.22 2.81333 1.38 2.44 1.7C2.06667 2.02 1.82 2.46 1.7 3.02C1.59333 3.58 1.54 4.22 1.54 4.94V11.6C1.54 12.3867 1.60667 13.06 1.74 13.62C1.88667 14.1667 2.14667 14.5933 2.52 14.9C2.90667 15.1933 3.44667 15.34 4.14 15.34C4.82 15.34 5.34 15.1933 5.7 14.9C6.06 14.5933 6.31333 14.16 6.46 13.6C6.60667 13.04 6.68 12.36 6.68 11.56V9.66H4.28V8.52H8.08V16.36H7.1L6.92 14.52C6.72 15.1333 6.38667 15.6333 5.92 16.02C5.46667 16.3933 4.82667 16.58 4 16.58Z" fill="white"/>
<path d="M10.5111 16.36V4.8H11.9911V6.38C12.3644 5.76667 12.7911 5.33333 13.2711 5.08C13.7511 4.81333 14.2111 4.68 14.6511 4.68C14.6911 4.68 14.7311 4.68 14.7711 4.68C14.8111 4.68 14.8578 4.68667 14.9111 4.7V6.26C14.8178 6.22 14.7044 6.19333 14.5711 6.18C14.4378 6.15333 14.3111 6.14 14.1911 6.14C13.7378 6.14 13.3244 6.24667 12.9511 6.46C12.5911 6.67333 12.2711 7.01333 11.9911 7.48V16.36H10.5111Z" fill="white"/>
<path d="M18.29 16.54C17.8233 16.54 17.4167 16.4267 17.07 16.2C16.7233 15.96 16.45 15.6467 16.25 15.26C16.0633 14.86 15.97 14.4267 15.97 13.96C15.97 13.3733 16.05 12.8733 16.21 12.46C16.3833 12.0467 16.65 11.68 17.01 11.36C17.3833 11.0267 17.8633 10.7067 18.45 10.4C19.05 10.08 19.7767 9.72667 20.63 9.34V8.52C20.63 7.81333 20.5833 7.26 20.49 6.86C20.41 6.44667 20.2633 6.15333 20.05 5.98C19.85 5.80667 19.5633 5.72 19.19 5.72C18.8833 5.72 18.61 5.78 18.37 5.9C18.13 6.02 17.9367 6.22667 17.79 6.52C17.6433 6.8 17.57 7.19333 17.57 7.7V8.1L16.13 8.08C16.1433 6.90667 16.39 6.04 16.87 5.48C17.3633 4.90667 18.1633 4.62 19.27 4.62C20.31 4.62 21.0367 4.93333 21.45 5.56C21.8767 6.17333 22.09 7.13333 22.09 8.44V14.06C22.09 14.26 22.0967 14.52 22.11 14.84C22.1233 15.1467 22.1367 15.44 22.15 15.72C22.1633 16 22.1767 16.2133 22.19 16.36H20.89C20.8633 16.1067 20.8233 15.8267 20.77 15.52C20.7167 15.2 20.6833 14.9467 20.67 14.76C20.51 15.2267 20.2233 15.64 19.81 16C19.41 16.36 18.9033 16.54 18.29 16.54ZM18.75 15.3C19.0433 15.3 19.31 15.2267 19.55 15.08C19.79 14.9333 20.0033 14.76 20.19 14.56C20.3767 14.3467 20.5233 14.1333 20.63 13.92V10.32C20.0567 10.6133 19.5633 10.88 19.15 11.12C18.75 11.36 18.4233 11.5933 18.17 11.82C17.9167 12.0467 17.73 12.3067 17.61 12.6C17.49 12.88 17.43 13.2133 17.43 13.6C17.43 14.2133 17.5633 14.6533 17.83 14.92C18.0967 15.1733 18.4033 15.3 18.75 15.3Z" fill="white"/>
<path d="M26.7992 16.54C25.8126 16.54 25.0992 16.1667 24.6592 15.42C24.2326 14.6733 24.0192 13.4333 24.0192 11.7V9.56C24.0192 8.54667 24.0926 7.67333 24.2392 6.94C24.3859 6.20667 24.6526 5.64 25.0392 5.24C25.4392 4.82667 26.0059 4.62 26.7392 4.62C27.1926 4.62 27.5859 4.72667 27.9192 4.94C28.2659 5.14 28.5526 5.36667 28.7792 5.62V0.159999H30.2392V16.36H28.7792V15.54C28.5526 15.7933 28.2726 16.0267 27.9392 16.24C27.6192 16.44 27.2392 16.54 26.7992 16.54ZM27.0992 15.38C27.4192 15.38 27.7192 15.3067 27.9992 15.16C28.2926 15.0133 28.5526 14.8333 28.7792 14.62V6.58C28.5792 6.39333 28.3326 6.21333 28.0392 6.04C27.7459 5.85333 27.4192 5.76 27.0592 5.76C26.4192 5.76 25.9926 6.04667 25.7792 6.62C25.5792 7.18 25.4792 8 25.4792 9.08V11.82C25.4792 12.5933 25.5192 13.2467 25.5992 13.78C25.6926 14.3133 25.8526 14.7133 26.0792 14.98C26.3192 15.2467 26.6592 15.38 27.0992 15.38Z" fill="white"/>
<path d="M32.6609 16.36V4.8H34.1209V16.36H32.6609ZM32.6609 3.2V1.22H34.1209V3.2H32.6609Z" fill="white"/>
<path d="M39.483 16.54C38.763 16.54 38.1696 16.4 37.703 16.12C37.2496 15.8267 36.9096 15.3467 36.683 14.68C36.4696 14.0133 36.363 13.1267 36.363 12.02V9.1C36.363 7.95333 36.4763 7.06 36.703 6.42C36.9296 5.76667 37.2763 5.30667 37.743 5.04C38.2096 4.76 38.7963 4.62 39.503 4.62C40.3163 4.62 40.9363 4.79333 41.363 5.14C41.7896 5.48667 42.083 6.01333 42.243 6.72C42.4163 7.41333 42.503 8.30667 42.503 9.4V10.44H37.823V12.46C37.823 13.2067 37.8763 13.8 37.983 14.24C38.103 14.6667 38.283 14.9733 38.523 15.16C38.7763 15.3467 39.0963 15.44 39.483 15.44C39.7763 15.44 40.043 15.3867 40.283 15.28C40.523 15.16 40.7096 14.94 40.843 14.62C40.9896 14.2867 41.063 13.82 41.063 13.22V12.42H42.483V13.06C42.483 14.1133 42.263 14.96 41.823 15.6C41.3963 16.2267 40.6163 16.54 39.483 16.54ZM37.823 9.6H41.063V8.64C41.063 8.02667 41.0296 7.50667 40.963 7.08C40.8963 6.64 40.7496 6.30667 40.523 6.08C40.3096 5.84 39.963 5.72 39.483 5.72C39.083 5.72 38.7563 5.80667 38.503 5.98C38.263 6.15333 38.0896 6.46667 37.983 6.92C37.8763 7.36 37.823 7.99333 37.823 8.82V9.6Z" fill="white"/>
<path d="M44.4736 16.36V4.8H45.9336V6C46.3069 5.6 46.7269 5.27333 47.1936 5.02C47.6603 4.75333 48.1669 4.62 48.7136 4.62C49.1003 4.62 49.4269 4.72 49.6936 4.92C49.9603 5.10667 50.1603 5.38667 50.2936 5.76C50.4269 6.12 50.4936 6.56 50.4936 7.08V16.36H49.0336V7.4C49.0336 6.8 48.9403 6.38 48.7536 6.14C48.5803 5.88667 48.3069 5.76 47.9336 5.76C47.6003 5.76 47.2603 5.86 46.9136 6.06C46.5669 6.26 46.2403 6.52 45.9336 6.84V16.36H44.4736Z" fill="white"/>
<path d="M55.3972 16.5C54.8372 16.5 54.4039 16.3933 54.0972 16.18C53.8039 15.9533 53.5972 15.6533 53.4772 15.28C53.3705 14.8933 53.3172 14.4533 53.3172 13.96V5.76H51.8972V4.8H53.3172V1.22H54.7772V4.8H56.6972V5.76H54.7772V13.82C54.7772 14.38 54.8372 14.78 54.9572 15.02C55.0905 15.2467 55.3705 15.36 55.7972 15.36C55.9172 15.36 56.0505 15.3533 56.1972 15.34C56.3572 15.3133 56.5039 15.2867 56.6372 15.26V16.38C56.4372 16.42 56.2305 16.4467 56.0172 16.46C55.8039 16.4867 55.5972 16.5 55.3972 16.5Z" fill="white"/>
<path d="M31.92 0.36H34.92V3.36H31.92V0.36Z" fill="#FF7820"/>
</svg>
