<svg width="388" height="27" viewBox="0 0 388 27" fill="none" xmlns="http://www.w3.org/2000/svg">
<path d="M369 26V3H387V26L377.743 17L369 26Z" stroke="black" stroke-width="2" stroke-linecap="round" stroke-linejoin="round"/>
<path d="M100.474 12.0655L90.2555 3.37939H116.314L102.518 24.8392L100.474 12.0655Z" stroke="black" stroke-width="2" stroke-linecap="round" stroke-linejoin="round"/>
<path d="M100.985 12.0655L115.803 3.37939" stroke="black" stroke-width="2"/>
<path d="M70.9771 24.5225L68.8167 18.6917C69.8996 16.8353 70.495 14.659 70.4133 12.332C70.1946 6.10975 65.0571 1.07487 58.8525 1.00083C52.121 0.921498 46.6752 6.54343 47.0151 13.3553C47.3128 19.3395 52.1605 24.1973 58.1201 24.4934C60.3964 24.6045 62.5358 24.065 64.3747 23.0417L70.5398 24.9826C70.8191 25.0725 71.0799 24.7975 70.9771 24.5225Z" stroke="#242A31" stroke-width="2" stroke-miterlimit="10"/>
<path d="M25.6094 4.26369C21.337 -0.980094 14.6507 4.86609 14.0242 5.43399V5.38092C14.0242 5.38092 6.87655 -1.33835 2.39189 4.16816C-0.693115 7.95504 1.89388 12.8618 4.88191 16.3807C8.7742 20.961 13.4712 24.4931 13.977 24.8673V25C13.977 25 19.0016 21.3272 23.1167 16.4788C26.1074 12.9573 28.6917 8.05058 25.6094 4.26369Z" stroke="#242A31" stroke-width="2" stroke-miterlimit="10" stroke-linecap="round" stroke-linejoin="round"/>
</svg>
